<!-- Generated from @threadwick/core (npm run gen:favicon). Icon: Font Awesome Pro 7 regular "reel", used under Threadwick's FA Pro commercial licence — https://fontawesome.com/license -->
<svg xmlns="http://www.w3.org/2000/svg" width="128" height="128" viewBox="0 0 128 128"><rect width="128" height="128" rx="16" fill="#B0512E"/><path d="M32 24C32 10.7 42.7 0 56 0L392 0c13.3 0 24 10.7 24 24s-10.7 24-24 24l-8 0 0 48-48 0 0-48-224 0 0 48-48 0 0-48-8 0C42.7 48 32 37.3 32 24zm0 464c0-13.3 10.7-24 24-24l8 0 0-48 48 0 0 48 224 0 0-48 48 0 0 48 8 0c13.3 0 24 10.7 24 24s-10.7 24-24 24L56 512c-13.3 0-24-10.7-24-24zM88 136l272 0c13.3 0 24 10.7 24 24s-10.7 24-24 24L88 184c-13.3 0-24-10.7-24-24s10.7-24 24-24zm0 96l336 0c13.3 0 24 10.7 24 24s-10.7 24-24 24L88 280c-13.3 0-24-10.7-24-24s10.7-24 24-24zM64 352c0-13.3 10.7-24 24-24l272 0c13.3 0 24 10.7 24 24s-10.7 24-24 24L88 376c-13.3 0-24-10.7-24-24z" transform="translate(36 32) scale(0.125)" fill="#FFFFFF"/></svg>
