<svg xmlns="http://www.w3.org/2000/svg" width="1200" height="630" viewBox="0 0 1200 630" font-family="Inter, system-ui, -apple-system, Segoe UI, Roboto, Arial, sans-serif">
  <rect width="1200" height="630" fill="#f6f4ef"/>
  <rect x="24" y="24" width="1152" height="582" rx="28" fill="#ffffff" stroke="#e7e2d8" stroke-width="2"/>

  <!-- wordmark (Studio logo: white icon on orange tile, 64px = 640 viewBox * 0.1) -->
  <g transform="translate(88 96)">
    <g transform="scale(0.1)">
      <rect width="640" height="640" rx="144" fill="#c2603f"/>
      <g transform="translate(320 320) scale(.66) translate(-320 -320)" fill="#ffffff"><path d="M64 464C64 525.9 114.1 576 176 576L504 576C543.8 576 576 543.8 576 504L576 424C576 388.6 550.4 359.1 516.7 353.1L469.8 400L504 400C517.3 400 528 410.7 528 424L528 504C528 517.3 517.3 528 504 528L273.9 528L495 306.9C523.1 278.8 523.1 233.2 495 205.1L434.9 145C407.7 117.8 364.3 116.9 336 142.2L336 209.9L367 178.9C376.4 169.5 391.6 169.5 400.9 178.9L461.1 239C470.5 248.4 470.5 263.6 461.1 272.9L288 446.1L288 136C288 96.2 255.8 64 216 64L136 64C96.2 64 64 96.2 64 136L64 464zM176 528C140.7 528 112 499.3 112 464L112 368L240 368L240 464C240 499.3 211.3 528 176 528zM112 320L112 240L240 240L240 320L112 320zM112 192L112 136C112 122.7 122.7 112 136 112L216 112C229.3 112 240 122.7 240 136L240 192L112 192zM176 488C189.3 488 200 477.3 200 464C200 450.7 189.3 440 176 440C162.7 440 152 450.7 152 464C152 477.3 162.7 488 176 488z"/></g>
    </g>
    <text x="84" y="46" font-size="44" font-weight="700" fill="#21201c" font-family="Space Grotesk, Inter, sans-serif" letter-spacing="-1">threadwick</text>
  </g>

  <!-- headline -->
  <text x="88" y="318" font-size="62" font-weight="700" fill="#21201c" font-family="Space Grotesk, Inter, sans-serif" letter-spacing="-1.5">Fair tools for</text>
  <text x="88" y="390" font-size="62" font-weight="700" fill="#c2603f" font-family="Space Grotesk, Inter, sans-serif" letter-spacing="-1.5">fiber artists &amp; makers</text>

  <text x="90" y="468" font-size="32" fill="#6b675f">Design crochet charts the way you make them.</text>
  <text x="90" y="514" font-size="32" fill="#6b675f">Free to use — no lock-in, your work stays yours.</text>
</svg>
