<svg xmlns="http://www.w3.org/2000/svg" viewBox="250 0 460 308" role="img" aria-label="threadwick — fair tools for fiber artists and makers">
	<g transform="translate(436.0 28.0) scale(0.13750)">
		<rect width="640" height="640" rx="144" fill="#B0512E"/>
		<g transform="translate(320 320) scale(.66) translate(-320 -320)" fill="#FFFFFF">
			<path d="M64 464C64 525.9 114.1 576 176 576L504 576C543.8 576 576 543.8 576 504L576 424C576 388.6 550.4 359.1 516.7 353.1L469.8 400L504 400C517.3 400 528 410.7 528 424L528 504C528 517.3 517.3 528 504 528L273.9 528L495 306.9C523.1 278.8 523.1 233.2 495 205.1L434.9 145C407.7 117.8 364.3 116.9 336 142.2L336 209.9L367 178.9C376.4 169.5 391.6 169.5 400.9 178.9L461.1 239C470.5 248.4 470.5 263.6 461.1 272.9L288 446.1L288 136C288 96.2 255.8 64 216 64L136 64C96.2 64 64 96.2 64 136L64 464zM176 528C140.7 528 112 499.3 112 464L112 368L240 368L240 464C240 499.3 211.3 528 176 528zM112 320L112 240L240 240L240 320L112 320zM112 192L112 136C112 122.7 122.7 112 136 112L216 112C229.3 112 240 122.7 240 136L240 192L112 192zM176 488C189.3 488 200 477.3 200 464C200 450.7 189.3 440 176 440C162.7 440 152 450.7 152 464C152 477.3 189.3 488 176 488z"/>
		</g>
	</g>
	<path transform="translate(305.2 196.0)" fill="#B0512E" d="M16.6 0.0Q13.5 0.0 11.6 -2.0Q9.6 -3.9 9.6 -7.2V-25.1H1.7V-31.7H9.6V-41.6H17.7V-31.7H26.4V-25.1H17.7V-8.6Q17.7 -6.7 19.5 -6.7H25.6V0.0Z M33.7 0.0V-44.8H41.7V-27.8H42.9Q43.4 -28.9 44.5 -29.9Q45.6 -30.9 47.4 -31.6Q49.2 -32.3 52.0 -32.3Q55.7 -32.3 58.5 -30.6Q61.3 -28.9 62.8 -25.9Q64.4 -22.9 64.4 -18.9V0.0H56.3V-18.3Q56.3 -21.9 54.6 -23.7Q52.8 -25.5 49.5 -25.5Q45.8 -25.5 43.8 -23.0Q41.7 -20.5 41.7 -16.1V0.0Z M73.1 0.0V-31.7H81.0V-28.2H82.2Q82.9 -30.1 84.5 -31.0Q86.1 -31.9 88.3 -31.9H92.2V-24.7H88.2Q85.1 -24.7 83.1 -23.1Q81.2 -21.4 81.2 -18.0V0.0Z M112.9 0.9Q108.2 0.9 104.5 -1.1Q100.9 -3.1 98.9 -6.8Q96.9 -10.5 96.9 -15.5V-16.3Q96.9 -21.2 98.9 -24.9Q100.9 -28.6 104.4 -30.6Q108.0 -32.6 112.8 -32.6Q117.4 -32.6 120.9 -30.6Q124.4 -28.5 126.3 -24.8Q128.2 -21.1 128.2 -16.3V-13.5H105.1Q105.2 -10.2 107.5 -8.2Q109.8 -6.1 113.2 -6.1Q116.5 -6.1 118.1 -7.6Q119.7 -9.1 120.6 -10.9L127.2 -7.4Q126.3 -5.8 124.6 -3.8Q122.9 -1.9 120.1 -0.5Q117.2 0.9 112.9 0.9ZM105.2 -19.5H120.0Q119.7 -22.3 117.8 -23.9Q115.8 -25.6 112.7 -25.6Q109.4 -25.6 107.5 -23.9Q105.6 -22.3 105.2 -19.5Z M145.2 0.9Q141.8 0.9 139.1 -0.3Q136.4 -1.5 134.9 -3.7Q133.3 -6.0 133.3 -9.3Q133.3 -12.5 134.9 -14.8Q136.4 -17.0 139.2 -18.1Q142.0 -19.2 145.6 -19.2H154.3V-21.0Q154.3 -23.2 152.9 -24.7Q151.5 -26.1 148.4 -26.1Q145.4 -26.1 143.9 -24.7Q142.5 -23.4 142.0 -21.2L134.6 -23.7Q135.4 -26.1 137.1 -28.1Q138.8 -30.1 141.6 -31.4Q144.4 -32.6 148.5 -32.6Q154.8 -32.6 158.5 -29.5Q162.1 -26.4 162.1 -20.4V-8.6Q162.1 -6.7 163.9 -6.7H166.5V0.0H161.1Q158.7 0.0 157.2 -1.2Q155.6 -2.3 155.6 -4.2V-4.3H154.4Q154.2 -3.5 153.3 -2.3Q152.4 -1.0 150.5 -0.1Q148.5 0.9 145.2 0.9ZM146.6 -5.6Q150.0 -5.6 152.2 -7.5Q154.3 -9.4 154.3 -12.5V-13.2H146.2Q143.9 -13.2 142.7 -12.2Q141.4 -11.3 141.4 -9.5Q141.4 -7.8 142.7 -6.7Q144.1 -5.6 146.6 -5.6Z M185.2 0.9Q181.4 0.9 178.1 -1.0Q174.8 -2.9 172.8 -6.5Q170.8 -10.2 170.8 -15.4V-16.4Q170.8 -21.6 172.8 -25.2Q174.8 -28.9 178.0 -30.8Q181.3 -32.6 185.2 -32.6Q188.0 -32.6 190.0 -32.0Q191.9 -31.3 193.2 -30.3Q194.4 -29.2 195.0 -28.1H196.2V-44.8H204.2V0.0H196.3V-3.8H195.1Q194.0 -2.0 191.8 -0.6Q189.5 0.9 185.2 0.9ZM187.6 -6.1Q191.3 -6.1 193.8 -8.5Q196.3 -10.9 196.3 -15.6V-16.2Q196.3 -20.8 193.8 -23.2Q191.4 -25.6 187.6 -25.6Q183.9 -25.6 181.4 -23.2Q178.9 -20.8 178.9 -16.2V-15.6Q178.9 -10.9 181.4 -8.5Q183.9 -6.1 187.6 -6.1Z M215.7 0.0 211.3 -31.7H219.3L222.1 -5.4H223.2L227.3 -31.7H240.3L244.4 -5.4H245.5L248.3 -31.7H256.3L251.8 0.0H238.5L234.4 -26.3H233.2L229.1 0.0Z M263.4 0.0V-31.7H271.4V0.0ZM267.4 -35.5Q265.2 -35.5 263.7 -36.9Q262.2 -38.3 262.2 -40.6Q262.2 -42.9 263.7 -44.3Q265.2 -45.7 267.4 -45.7Q269.6 -45.7 271.1 -44.3Q272.6 -42.9 272.6 -40.6Q272.6 -38.3 271.1 -36.9Q269.6 -35.5 267.4 -35.5Z M295.3 0.9Q290.7 0.9 286.9 -1.0Q283.2 -2.9 281.0 -6.6Q278.8 -10.2 278.8 -15.4V-16.3Q278.8 -21.5 281.0 -25.2Q283.2 -28.8 286.9 -30.7Q290.7 -32.6 295.3 -32.6Q299.8 -32.6 303.1 -31.0Q306.4 -29.4 308.4 -26.7Q310.4 -23.9 311.0 -20.4L303.2 -18.7Q303.0 -20.6 302.1 -22.1Q301.2 -23.7 299.6 -24.6Q297.9 -25.5 295.5 -25.5Q293.1 -25.5 291.1 -24.4Q289.2 -23.4 288.0 -21.3Q286.9 -19.2 286.9 -16.2V-15.6Q286.9 -12.5 288.0 -10.5Q289.2 -8.4 291.1 -7.3Q293.1 -6.3 295.5 -6.3Q299.1 -6.3 301.0 -8.2Q302.9 -10.0 303.4 -13.1L311.2 -11.3Q310.4 -7.9 308.4 -5.1Q306.4 -2.3 303.1 -0.7Q299.8 0.9 295.3 0.9Z M317.9 0.0V-44.8H326.0V-20.0H327.1L337.6 -31.7H348.1L333.4 -16.4L348.6 0.0H338.2L327.1 -12.6H326.0V0.0Z"/>
	<g fill="none" stroke="#B0512E" stroke-width="1.8" opacity="0.55"><ellipse cx="384.0" cy="228.0" rx="7.5" ry="4.5"/> <ellipse cx="408.0" cy="228.0" rx="7.5" ry="4.5"/> <ellipse cx="432.0" cy="228.0" rx="7.5" ry="4.5"/> <ellipse cx="456.0" cy="228.0" rx="7.5" ry="4.5"/> <ellipse cx="480.0" cy="228.0" rx="7.5" ry="4.5"/> <ellipse cx="504.0" cy="228.0" rx="7.5" ry="4.5"/> <ellipse cx="528.0" cy="228.0" rx="7.5" ry="4.5"/> <ellipse cx="552.0" cy="228.0" rx="7.5" ry="4.5"/> <ellipse cx="576.0" cy="228.0" rx="7.5" ry="4.5"/></g>
	<path transform="translate(289.7 274.0)" fill="#6B6055" d="M3.6 0.0V-8.9H0.6V-10.8H3.6V-13.2Q3.6 -14.2 4.2 -14.8Q4.8 -15.4 5.8 -15.4H8.6V-13.5H6.5Q5.9 -13.5 5.9 -12.8V-10.8H9.0V-8.9H5.9V0.0Z M15.1 0.3Q13.9 0.3 13.0 -0.1Q12.1 -0.5 11.6 -1.3Q11.0 -2.0 11.0 -3.1Q11.0 -4.2 11.6 -5.0Q12.1 -5.7 13.0 -6.1Q14.0 -6.5 15.2 -6.5H18.5V-7.2Q18.5 -8.1 17.9 -8.7Q17.3 -9.3 16.1 -9.3Q15.0 -9.3 14.3 -8.7Q13.7 -8.2 13.5 -7.3L11.4 -8.0Q11.7 -8.8 12.3 -9.6Q12.9 -10.3 13.8 -10.7Q14.8 -11.2 16.2 -11.2Q18.3 -11.2 19.5 -10.1Q20.7 -9.0 20.7 -7.0V-2.6Q20.7 -1.9 21.3 -1.9H22.2V0.0H20.5Q19.8 0.0 19.3 -0.4Q18.8 -0.8 18.8 -1.5V-1.5H18.5Q18.3 -1.2 17.9 -0.8Q17.6 -0.3 16.9 -0.0Q16.2 0.3 15.1 0.3ZM15.4 -1.6Q16.8 -1.6 17.6 -2.3Q18.5 -3.1 18.5 -4.5V-4.7H15.3Q14.4 -4.7 13.8 -4.3Q13.3 -3.9 13.3 -3.2Q13.3 -2.4 13.9 -2.0Q14.4 -1.6 15.4 -1.6Z M24.8 0.0V-10.8H27.1V0.0ZM26.0 -12.3Q25.3 -12.3 24.9 -12.7Q24.4 -13.2 24.4 -13.9Q24.4 -14.5 24.9 -15.0Q25.3 -15.4 26.0 -15.4Q26.6 -15.4 27.1 -15.0Q27.5 -14.5 27.5 -13.9Q27.5 -13.2 27.1 -12.7Q26.6 -12.3 26.0 -12.3Z M30.9 0.0V-10.8H33.1V-9.6H33.4Q33.7 -10.3 34.3 -10.6Q34.9 -10.9 35.7 -10.9H37.0V-8.8H35.6Q34.5 -8.8 33.8 -8.2Q33.1 -7.6 33.1 -6.4V0.0Z M49.8 0.0Q48.9 0.0 48.3 -0.6Q47.7 -1.2 47.7 -2.2V-8.9H44.7V-10.8H47.7V-14.4H50.0V-10.8H53.2V-8.9H50.0V-2.6Q50.0 -1.9 50.6 -1.9H52.8V0.0Z M61.3 0.3Q59.7 0.3 58.4 -0.4Q57.2 -1.0 56.5 -2.3Q55.7 -3.5 55.7 -5.3V-5.6Q55.7 -7.3 56.5 -8.5Q57.2 -9.8 58.4 -10.5Q59.7 -11.2 61.3 -11.2Q63.0 -11.2 64.2 -10.5Q65.5 -9.8 66.2 -8.5Q67.0 -7.3 67.0 -5.6V-5.3Q67.0 -3.5 66.2 -2.3Q65.5 -1.0 64.2 -0.4Q63.0 0.3 61.3 0.3ZM61.3 -1.7Q62.8 -1.7 63.8 -2.7Q64.7 -3.6 64.7 -5.3V-5.5Q64.7 -7.2 63.8 -8.2Q62.9 -9.1 61.3 -9.1Q59.9 -9.1 58.9 -8.2Q58.0 -7.2 58.0 -5.5V-5.3Q58.0 -3.6 58.9 -2.7Q59.9 -1.7 61.3 -1.7Z M75.3 0.3Q73.6 0.3 72.4 -0.4Q71.1 -1.0 70.4 -2.3Q69.7 -3.5 69.7 -5.3V-5.6Q69.7 -7.3 70.4 -8.5Q71.1 -9.8 72.4 -10.5Q73.6 -11.2 75.3 -11.2Q76.9 -11.2 78.2 -10.5Q79.4 -9.8 80.2 -8.5Q80.9 -7.3 80.9 -5.6V-5.3Q80.9 -3.5 80.2 -2.3Q79.4 -1.0 78.2 -0.4Q76.9 0.3 75.3 0.3ZM75.3 -1.7Q76.8 -1.7 77.7 -2.7Q78.6 -3.6 78.6 -5.3V-5.5Q78.6 -7.2 77.7 -8.2Q76.8 -9.1 75.3 -9.1Q73.8 -9.1 72.9 -8.2Q71.9 -7.2 71.9 -5.5V-5.3Q71.9 -3.6 72.9 -2.7Q73.8 -1.7 75.3 -1.7Z M84.1 0.0V-15.4H86.4V0.0Z M94.6 0.3Q92.5 0.3 91.2 -0.6Q89.8 -1.5 89.5 -3.4L91.6 -3.9Q91.8 -3.0 92.2 -2.5Q92.6 -2.0 93.2 -1.7Q93.9 -1.5 94.6 -1.5Q95.7 -1.5 96.3 -1.9Q96.8 -2.4 96.8 -3.0Q96.8 -3.7 96.3 -4.0Q95.7 -4.3 94.7 -4.5L93.9 -4.6Q92.8 -4.8 91.9 -5.2Q91.0 -5.6 90.5 -6.2Q89.9 -6.9 89.9 -7.9Q89.9 -9.5 91.1 -10.3Q92.2 -11.2 94.1 -11.2Q96.0 -11.2 97.1 -10.3Q98.3 -9.5 98.7 -8.1L96.5 -7.5Q96.4 -8.5 95.7 -8.9Q95.1 -9.3 94.1 -9.3Q93.2 -9.3 92.7 -9.0Q92.1 -8.6 92.1 -8.0Q92.1 -7.3 92.7 -7.0Q93.2 -6.7 94.1 -6.6L94.8 -6.4Q96.0 -6.2 97.0 -5.9Q97.9 -5.5 98.5 -4.9Q99.1 -4.2 99.1 -3.1Q99.1 -1.5 97.8 -0.6Q96.6 0.3 94.6 0.3Z M110.1 0.0V-8.9H107.0V-10.8H110.1V-13.2Q110.1 -14.2 110.7 -14.8Q111.3 -15.4 112.2 -15.4H115.0V-13.5H113.0Q112.3 -13.5 112.3 -12.8V-10.8H115.5V-8.9H112.3V0.0Z M123.2 0.3Q121.6 0.3 120.4 -0.4Q119.1 -1.0 118.4 -2.3Q117.6 -3.5 117.6 -5.3V-5.6Q117.6 -7.3 118.4 -8.5Q119.1 -9.8 120.4 -10.5Q121.6 -11.2 123.2 -11.2Q124.9 -11.2 126.2 -10.5Q127.4 -9.8 128.2 -8.5Q128.9 -7.3 128.9 -5.6V-5.3Q128.9 -3.5 128.2 -2.3Q127.4 -1.0 126.2 -0.4Q124.9 0.3 123.2 0.3ZM123.2 -1.7Q124.7 -1.7 125.7 -2.7Q126.6 -3.6 126.6 -5.3V-5.5Q126.6 -7.2 125.7 -8.2Q124.8 -9.1 123.2 -9.1Q121.8 -9.1 120.8 -8.2Q119.9 -7.2 119.9 -5.5V-5.3Q119.9 -3.6 120.8 -2.7Q121.8 -1.7 123.2 -1.7Z M132.1 0.0V-10.8H134.3V-9.6H134.7Q134.9 -10.3 135.5 -10.6Q136.1 -10.9 137.0 -10.9H138.3V-8.8H136.9Q135.8 -8.8 135.1 -8.2Q134.4 -7.6 134.4 -6.4V0.0Z M149.0 0.0V-8.9H145.9V-10.8H149.0V-13.2Q149.0 -14.2 149.6 -14.8Q150.2 -15.4 151.2 -15.4H153.9V-13.5H151.9Q151.2 -13.5 151.2 -12.8V-10.8H154.4V-8.9H151.2V0.0Z M156.5 0.0V-10.8H158.8V0.0ZM157.6 -12.3Q157.0 -12.3 156.5 -12.7Q156.1 -13.2 156.1 -13.9Q156.1 -14.5 156.5 -15.0Q157.0 -15.4 157.6 -15.4Q158.3 -15.4 158.8 -15.0Q159.2 -14.5 159.2 -13.9Q159.2 -13.2 158.8 -12.7Q158.3 -12.3 157.6 -12.3Z M168.8 0.3Q167.2 0.3 166.4 -0.3Q165.5 -0.8 165.1 -1.5H164.8V0.0H162.5V-15.4H164.8V-9.4H165.2Q165.4 -9.8 165.9 -10.2Q166.3 -10.6 167.0 -10.9Q167.8 -11.2 168.8 -11.2Q170.2 -11.2 171.3 -10.5Q172.5 -9.8 173.1 -8.6Q173.8 -7.3 173.8 -5.6V-5.3Q173.8 -3.5 173.1 -2.3Q172.4 -1.0 171.3 -0.4Q170.2 0.3 168.8 0.3ZM168.1 -1.7Q169.6 -1.7 170.6 -2.6Q171.5 -3.6 171.5 -5.3V-5.5Q171.5 -7.3 170.6 -8.2Q169.6 -9.2 168.1 -9.2Q166.7 -9.2 165.7 -8.2Q164.8 -7.3 164.8 -5.5V-5.3Q164.8 -3.6 165.7 -2.6Q166.7 -1.7 168.1 -1.7Z M182.0 0.3Q180.4 0.3 179.1 -0.4Q177.9 -1.1 177.2 -2.3Q176.5 -3.6 176.5 -5.3V-5.5Q176.5 -7.2 177.2 -8.5Q177.9 -9.8 179.1 -10.5Q180.3 -11.2 181.9 -11.2Q183.5 -11.2 184.7 -10.5Q185.8 -9.8 186.5 -8.5Q187.2 -7.3 187.2 -5.7V-4.8H178.8Q178.9 -3.4 179.8 -2.5Q180.7 -1.7 182.1 -1.7Q183.3 -1.7 184.0 -2.2Q184.6 -2.8 185.0 -3.6L186.9 -2.6Q186.5 -2.0 186.0 -1.3Q185.4 -0.6 184.4 -0.2Q183.5 0.3 182.0 0.3ZM178.8 -6.5H184.8Q184.8 -7.8 184.0 -8.5Q183.2 -9.2 181.9 -9.2Q180.6 -9.2 179.8 -8.5Q179.0 -7.8 178.8 -6.5Z M190.3 0.0V-10.8H192.5V-9.6H192.9Q193.1 -10.3 193.7 -10.6Q194.3 -10.9 195.1 -10.9H196.4V-8.8H195.1Q194.0 -8.8 193.3 -8.2Q192.6 -7.6 192.6 -6.4V0.0Z M208.6 0.3Q207.4 0.3 206.5 -0.1Q205.6 -0.5 205.0 -1.3Q204.5 -2.0 204.5 -3.1Q204.5 -4.2 205.0 -5.0Q205.6 -5.7 206.5 -6.1Q207.5 -6.5 208.6 -6.5H211.9V-7.2Q211.9 -8.1 211.4 -8.7Q210.8 -9.3 209.6 -9.3Q208.4 -9.3 207.8 -8.7Q207.2 -8.2 207.0 -7.3L204.9 -8.0Q205.2 -8.8 205.8 -9.6Q206.3 -10.3 207.3 -10.7Q208.3 -11.2 209.6 -11.2Q211.7 -11.2 213.0 -10.1Q214.2 -9.0 214.2 -7.0V-2.6Q214.2 -1.9 214.8 -1.9H215.7V0.0H214.0Q213.2 0.0 212.8 -0.4Q212.3 -0.8 212.3 -1.5V-1.5H211.9Q211.8 -1.2 211.4 -0.8Q211.1 -0.3 210.4 -0.0Q209.7 0.3 208.6 0.3ZM208.9 -1.6Q210.3 -1.6 211.1 -2.3Q211.9 -3.1 211.9 -4.5V-4.7H208.8Q207.9 -4.7 207.3 -4.3Q206.8 -3.9 206.8 -3.2Q206.8 -2.4 207.3 -2.0Q207.9 -1.6 208.9 -1.6Z M218.3 0.0V-10.8H220.5V-9.6H220.9Q221.1 -10.3 221.7 -10.6Q222.3 -10.9 223.2 -10.9H224.5V-8.8H223.1Q222.0 -8.8 221.3 -8.2Q220.6 -7.6 220.6 -6.4V0.0Z M231.3 0.0Q230.3 0.0 229.7 -0.6Q229.1 -1.2 229.1 -2.2V-8.9H226.1V-10.8H229.1V-14.4H231.4V-10.8H234.6V-8.9H231.4V-2.6Q231.4 -1.9 232.0 -1.9H234.3V0.0Z M237.7 0.0V-10.8H240.0V0.0ZM238.8 -12.3Q238.2 -12.3 237.7 -12.7Q237.3 -13.2 237.3 -13.9Q237.3 -14.5 237.7 -15.0Q238.2 -15.4 238.8 -15.4Q239.5 -15.4 240.0 -15.0Q240.4 -14.5 240.4 -13.9Q240.4 -13.2 240.0 -12.7Q239.5 -12.3 238.8 -12.3Z M248.2 0.3Q246.1 0.3 244.7 -0.6Q243.4 -1.5 243.1 -3.4L245.2 -3.9Q245.4 -3.0 245.8 -2.5Q246.2 -2.0 246.8 -1.7Q247.4 -1.5 248.2 -1.5Q249.2 -1.5 249.8 -1.9Q250.4 -2.4 250.4 -3.0Q250.4 -3.7 249.9 -4.0Q249.3 -4.3 248.2 -4.5L247.5 -4.6Q246.4 -4.8 245.5 -5.2Q244.6 -5.6 244.1 -6.2Q243.5 -6.9 243.5 -7.9Q243.5 -9.5 244.7 -10.3Q245.8 -11.2 247.7 -11.2Q249.5 -11.2 250.7 -10.3Q251.9 -9.5 252.2 -8.1L250.1 -7.5Q249.9 -8.5 249.3 -8.9Q248.7 -9.3 247.7 -9.3Q246.8 -9.3 246.3 -9.0Q245.7 -8.6 245.7 -8.0Q245.7 -7.3 246.2 -7.0Q246.8 -6.7 247.6 -6.6L248.4 -6.4Q249.6 -6.2 250.5 -5.9Q251.5 -5.5 252.1 -4.9Q252.6 -4.2 252.6 -3.1Q252.6 -1.5 251.4 -0.6Q250.2 0.3 248.2 0.3Z M259.7 0.0Q258.8 0.0 258.2 -0.6Q257.6 -1.2 257.6 -2.2V-8.9H254.6V-10.8H257.6V-14.4H259.9V-10.8H263.1V-8.9H259.9V-2.6Q259.9 -1.9 260.5 -1.9H262.7V0.0Z M270.6 0.3Q268.5 0.3 267.2 -0.6Q265.8 -1.5 265.5 -3.4L267.6 -3.9Q267.8 -3.0 268.2 -2.5Q268.6 -2.0 269.2 -1.7Q269.9 -1.5 270.6 -1.5Q271.7 -1.5 272.3 -1.9Q272.8 -2.4 272.8 -3.0Q272.8 -3.7 272.3 -4.0Q271.7 -4.3 270.7 -4.5L269.9 -4.6Q268.8 -4.8 267.9 -5.2Q267.0 -5.6 266.5 -6.2Q266.0 -6.9 266.0 -7.9Q266.0 -9.5 267.1 -10.3Q268.2 -11.2 270.1 -11.2Q272.0 -11.2 273.1 -10.3Q274.3 -9.5 274.7 -8.1L272.6 -7.5Q272.4 -8.5 271.7 -8.9Q271.1 -9.3 270.1 -9.3Q269.2 -9.3 268.7 -9.0Q268.2 -8.6 268.2 -8.0Q268.2 -7.3 268.7 -7.0Q269.2 -6.7 270.1 -6.6L270.8 -6.4Q272.0 -6.2 273.0 -5.9Q273.9 -5.5 274.5 -4.9Q275.1 -4.2 275.1 -3.1Q275.1 -1.5 273.9 -0.6Q272.6 0.3 270.6 0.3Z M287.8 0.0Q286.4 0.0 285.4 -0.5Q284.4 -1.0 283.8 -1.9Q283.2 -2.8 283.2 -4.1Q283.2 -5.1 283.6 -5.8Q283.9 -6.5 284.5 -7.0Q285.1 -7.4 285.9 -7.7V-7.9Q284.8 -8.3 284.1 -9.1Q283.3 -9.9 283.3 -11.3Q283.3 -12.6 283.9 -13.5Q284.6 -14.5 285.6 -14.9Q286.6 -15.4 287.9 -15.4H290.4V-13.5H288.2Q287.1 -13.5 286.4 -12.9Q285.6 -12.3 285.6 -11.1Q285.6 -10.3 286.0 -9.8Q286.4 -9.2 286.9 -9.0Q287.5 -8.7 288.2 -8.7H290.8V-10.9H293.1V-8.7H295.2V-6.8H293.1V0.0ZM288.1 -1.9H290.8V-6.8H288.1Q287.0 -6.8 286.3 -6.2Q285.5 -5.6 285.5 -4.4Q285.5 -3.1 286.3 -2.5Q287.1 -1.9 288.1 -1.9Z M303.7 0.0V-10.8H305.9V-9.6H306.3Q306.6 -10.1 307.2 -10.6Q307.9 -11.0 309.1 -11.0Q310.3 -11.0 311.0 -10.5Q311.8 -10.0 312.1 -9.3H312.5Q312.9 -10.0 313.6 -10.5Q314.3 -11.0 315.6 -11.0Q316.7 -11.0 317.5 -10.6Q318.3 -10.2 318.8 -9.3Q319.3 -8.5 319.3 -7.2V0.0H317.0V-7.0Q317.0 -8.0 316.5 -8.6Q315.9 -9.1 314.9 -9.1Q313.9 -9.1 313.2 -8.4Q312.6 -7.7 312.6 -6.5V0.0H310.3V-7.0Q310.3 -8.0 309.8 -8.6Q309.3 -9.1 308.3 -9.1Q307.2 -9.1 306.6 -8.4Q305.9 -7.7 305.9 -6.5V0.0Z M326.3 0.3Q325.1 0.3 324.2 -0.1Q323.3 -0.5 322.8 -1.3Q322.2 -2.0 322.2 -3.1Q322.2 -4.2 322.8 -5.0Q323.3 -5.7 324.2 -6.1Q325.2 -6.5 326.4 -6.5H329.7V-7.2Q329.7 -8.1 329.1 -8.7Q328.5 -9.3 327.3 -9.3Q326.2 -9.3 325.6 -8.7Q324.9 -8.2 324.7 -7.3L322.6 -8.0Q322.9 -8.8 323.5 -9.6Q324.1 -10.3 325.0 -10.7Q326.0 -11.2 327.4 -11.2Q329.5 -11.2 330.7 -10.1Q331.9 -9.0 331.9 -7.0V-2.6Q331.9 -1.9 332.5 -1.9H333.4V0.0H331.7Q331.0 0.0 330.5 -0.4Q330.0 -0.8 330.0 -1.5V-1.5H329.7Q329.5 -1.2 329.1 -0.8Q328.8 -0.3 328.1 -0.0Q327.4 0.3 326.3 0.3ZM326.6 -1.6Q328.0 -1.6 328.8 -2.3Q329.7 -3.1 329.7 -4.5V-4.7H326.5Q325.6 -4.7 325.0 -4.3Q324.5 -3.9 324.5 -3.2Q324.5 -2.4 325.1 -2.0Q325.6 -1.6 326.6 -1.6Z M336.0 0.0V-15.4H338.3V-6.6H338.6L342.9 -10.8H345.9L340.4 -5.6L346.1 0.0H343.1L338.6 -4.5H338.3V0.0Z M353.5 0.3Q351.9 0.3 350.6 -0.4Q349.4 -1.1 348.7 -2.3Q348.0 -3.6 348.0 -5.3V-5.5Q348.0 -7.2 348.7 -8.5Q349.4 -9.8 350.6 -10.5Q351.8 -11.2 353.4 -11.2Q355.0 -11.2 356.2 -10.5Q357.3 -9.8 358.0 -8.5Q358.7 -7.3 358.7 -5.7V-4.8H350.3Q350.4 -3.4 351.3 -2.5Q352.2 -1.7 353.6 -1.7Q354.8 -1.7 355.5 -2.2Q356.1 -2.8 356.5 -3.6L358.4 -2.6Q358.1 -2.0 357.5 -1.3Q356.9 -0.6 355.9 -0.2Q355.0 0.3 353.5 0.3ZM350.4 -6.5H356.4Q356.3 -7.8 355.5 -8.5Q354.7 -9.2 353.4 -9.2Q352.1 -9.2 351.3 -8.5Q350.5 -7.8 350.4 -6.5Z M361.8 0.0V-10.8H364.0V-9.6H364.4Q364.6 -10.3 365.2 -10.6Q365.8 -10.9 366.7 -10.9H368.0V-8.8H366.6Q365.5 -8.8 364.8 -8.2Q364.1 -7.6 364.1 -6.4V0.0Z M375.2 0.3Q373.1 0.3 371.7 -0.6Q370.4 -1.5 370.1 -3.4L372.2 -3.9Q372.3 -3.0 372.8 -2.5Q373.2 -2.0 373.8 -1.7Q374.4 -1.5 375.2 -1.5Q376.2 -1.5 376.8 -1.9Q377.4 -2.4 377.4 -3.0Q377.4 -3.7 376.8 -4.0Q376.3 -4.3 375.2 -4.5L374.5 -4.6Q373.4 -4.8 372.5 -5.2Q371.6 -5.6 371.0 -6.2Q370.5 -6.9 370.5 -7.9Q370.5 -9.5 371.7 -10.3Q372.8 -11.2 374.7 -11.2Q376.5 -11.2 377.7 -10.3Q378.9 -9.5 379.2 -8.1L377.1 -7.5Q376.9 -8.5 376.3 -8.9Q375.6 -9.3 374.7 -9.3Q373.8 -9.3 373.2 -9.0Q372.7 -8.6 372.7 -8.0Q372.7 -7.3 373.2 -7.0Q373.7 -6.7 374.6 -6.6L375.4 -6.4Q376.6 -6.2 377.5 -5.9Q378.5 -5.5 379.1 -4.9Q379.6 -4.2 379.6 -3.1Q379.6 -1.5 378.4 -0.6Q377.2 0.3 375.2 0.3Z"/>
</svg>
